<svg width="376" height="168" viewBox="0 0 376 168" version="1.1" xmlns="http://www.w3.org/2000/svg" xmlns:xlink="http://www.w3.org/1999/xlink">
<title>Group 8</title>
<desc>Created using Figma</desc>
<g id="Canvas" transform="matrix(2 0 0 2 -3354 -3296)">
<g id="Group 8">
<g id="Group 7.3">
<g id="Glenn">
<use xlink:href="#path0_fill" transform="translate(1677 1648)" fill="#FFFFFF"/>
<mask id="mask0_outline_out">
<rect id="mask0_outline_inv" fill="white" x="3" y="18" width="166" height="52" transform="translate(1677 1648)"/>
<use xlink:href="#path0_fill" fill="black" transform="translate(1677 1648)"/>
</mask>
<g mask="url(#mask0_outline_out)">
<use xlink:href="#path1_stroke_2x" transform="translate(1677 1648)"/>
</g>
</g>
<g id="Rectangle 3">
<use xlink:href="#path2_fill" transform="translate(1738 1667)" fill="#FDEA60"/>
<mask id="mask1_outline_ins">
<use xlink:href="#path2_fill" fill="white" transform="translate(1738 1667)"/>
</mask>
<g mask="url(#mask1_outline_ins)">
<use xlink:href="#path3_stroke_2x" transform="translate(1738 1667)"/>
</g>
</g>
<g id="Rectangle 3.5">
<use xlink:href="#path4_fill" transform="translate(1680 1725)" fill="#FDEA60"/>
<mask id="mask2_outline_ins">
<use xlink:href="#path4_fill" fill="white" transform="translate(1680 1725)"/>
</mask>
<g mask="url(#mask2_outline_ins)">
<use xlink:href="#path5_stroke_2x" transform="translate(1680 1725)"/>
</g>
</g>
</g>
</g>
</g>
<defs>
<path id="path0_fill" d="M 26.375 44.0625L 41.9062 44.0625L 41.9062 66.2812C 39.4896 67.0521 37.0312 67.6354 34.5312 68.0312C 32.0312 68.4271 29.1354 68.625 25.8438 68.625C 18.9271 68.625 13.5417 66.5729 9.6875 62.4688C 5.83333 58.3438 3.90625 52.5729 3.90625 45.1562C 3.90625 40.4062 4.85417 36.25 6.75 32.6875C 8.66667 29.1042 11.4167 26.375 15 24.5C 18.5833 22.6042 22.7812 21.6562 27.5938 21.6562C 32.4688 21.6562 37.0104 22.5521 41.2188 24.3438L 39.1562 29.0312C 35.0312 27.2812 31.0625 26.4062 27.25 26.4062C 21.6875 26.4062 17.3438 28.0625 14.2188 31.375C 11.0938 34.6875 9.53125 39.2812 9.53125 45.1562C 9.53125 51.3229 11.0312 56 14.0312 59.1875C 17.0521 62.375 21.4792 63.9688 27.3125 63.9688C 30.4792 63.9688 33.5729 63.6042 36.5938 62.875L 36.5938 48.8125L 26.375 48.8125L 26.375 44.0625ZM 52.321 19.424L 52.321 61.088C 52.321 65.632 54.625 68.448 59.425 68.448C 60.769 68.448 62.497 68.256 63.777 67.68L 63.777 63.456C 63.137 63.776 62.177 64.16 60.897 64.16C 58.273 64.16 57.249 62.816 57.249 59.744L 57.249 19.424L 52.321 19.424ZM 92.5185 61.472C 91.0465 62.752 87.9105 64.096 84.4545 64.096C 77.4785 64.096 73.8945 60.832 73.4465 52.256L 95.5905 52.256C 95.8465 50.016 95.9745 47.968 95.9745 46.24C 95.9745 37.984 91.5585 32.608 83.3025 32.608C 75.5585 32.608 68.5185 37.792 68.5185 50.4C 68.5185 63.392 73.8945 68.448 83.8145 68.448C 88.8065 68.448 92.4545 67.04 94.7585 65.312L 92.5185 61.472ZM 82.8545 36.896C 88.4865 36.896 91.0465 40.224 91.0465 46.176C 91.0465 46.624 91.0465 47.392 90.9825 48.16L 73.5105 48.16C 73.9585 39.776 78.3105 36.896 82.8545 36.896ZM 131.428 44C 131.236 36.256 127.076 32.48 120.101 32.48C 114.66 32.48 111.141 35.616 110.181 36.832L 109.925 36.832L 108.901 33.184L 105.124 33.184L 105.124 68L 110.116 68L 110.116 43.104C 111.333 39.712 114.66 36.896 118.948 36.896C 123.812 36.896 126.437 39.84 126.437 45.152L 126.437 68L 131.428 68L 131.428 44ZM 168.178 44C 167.986 36.256 163.826 32.48 156.851 32.48C 151.41 32.48 147.891 35.616 146.931 36.832L 146.675 36.832L 145.651 33.184L 141.874 33.184L 141.874 68L 146.866 68L 146.866 43.104C 148.083 39.712 151.41 36.896 155.698 36.896C 160.562 36.896 163.187 39.84 163.187 45.152L 163.187 68L 168.178 68L 168.178 44Z"/>
<path id="path1_stroke_2x" d="M 26.375 44.0625L 26.375 43.5625L 25.875 43.5625L 25.875 44.0625L 26.375 44.0625ZM 41.9062 44.0625L 42.4062 44.0625L 42.4062 43.5625L 41.9062 43.5625L 41.9062 44.0625ZM 41.9062 66.2812L 42.0582 66.7576L 42.4062 66.6466L 42.4062 66.2812L 41.9062 66.2812ZM 9.6875 62.4688L 9.32216 62.8101L 9.32302 62.811L 9.6875 62.4688ZM 6.75 32.6875L 6.30911 32.4517L 6.30861 32.4526L 6.75 32.6875ZM 15 24.5L 15.2318 24.943L 15.2338 24.942L 15 24.5ZM 41.2188 24.3438L 41.6764 24.5451L 41.8802 24.0819L 41.4146 23.8837L 41.2188 24.3438ZM 39.1562 29.0312L 38.961 29.4915L 39.4152 29.6842L 39.6139 29.2326L 39.1562 29.0312ZM 14.0312 59.1875L 13.6671 59.5302L 13.6683 59.5314L 14.0312 59.1875ZM 36.5938 62.875L 36.7111 63.361L 37.0938 63.2687L 37.0938 62.875L 36.5938 62.875ZM 36.5938 48.8125L 37.0938 48.8125L 37.0938 48.3125L 36.5938 48.3125L 36.5938 48.8125ZM 26.375 48.8125L 25.875 48.8125L 25.875 49.3125L 26.375 49.3125L 26.375 48.8125ZM 26.375 44.5625L 41.9062 44.5625L 41.9062 43.5625L 26.375 43.5625L 26.375 44.5625ZM 41.4062 44.0625L 41.4062 66.2812L 42.4062 66.2812L 42.4062 44.0625L 41.4062 44.0625ZM 41.7543 65.8049C 39.3617 66.5681 36.928 67.1455 34.4531 67.5374L 34.6094 68.5251C 37.1345 68.1253 39.6175 67.5361 42.0582 66.7576L 41.7543 65.8049ZM 34.4531 67.5374C 31.9853 67.9281 29.1166 68.125 25.8438 68.125L 25.8438 69.125C 29.1543 69.125 32.0772 68.926 34.6094 68.5251L 34.4531 67.5374ZM 25.8438 68.125C 19.0313 68.125 13.7907 66.1077 10.052 62.1265L 9.32302 62.811C 13.2926 67.0381 18.8229 69.125 25.8438 69.125L 25.8438 68.125ZM 10.0528 62.1274C 6.30957 58.1211 4.40625 52.4871 4.40625 45.1562L 3.40625 45.1562C 3.40625 52.6588 5.3571 58.5664 9.32216 62.8101L 10.0528 62.1274ZM 4.40625 45.1562C 4.40625 40.4737 5.34032 36.4008 7.19139 32.9224L 6.30861 32.4526C 4.36801 36.0992 3.40625 40.3388 3.40625 45.1562L 4.40625 45.1562ZM 7.19089 32.9233C 9.06048 29.428 11.7378 26.7713 15.2318 24.943L 14.7682 24.057C 11.0955 25.9787 8.27286 28.7803 6.30911 32.4517L 7.19089 32.9233ZM 15.2338 24.942C 18.7328 23.0908 22.8475 22.1562 27.5938 22.1562L 27.5938 21.1562C 22.715 21.1562 18.4339 22.1176 14.7662 24.058L 15.2338 24.942ZM 27.5938 22.1562C 32.4059 22.1562 36.8805 23.0402 41.0229 24.8038L 41.4146 23.8837C 37.1403 22.064 32.5316 21.1562 27.5938 21.1562L 27.5938 22.1562ZM 40.7611 24.1424L 38.6986 28.8299L 39.6139 29.2326L 41.6764 24.5451L 40.7611 24.1424ZM 39.3515 28.571C 35.1754 26.7993 31.1403 25.9062 27.25 25.9062L 27.25 26.9062C 30.9847 26.9062 34.8871 27.7632 38.961 29.4915L 39.3515 28.571ZM 27.25 25.9062C 21.5826 25.9062 17.0949 27.5977 13.8551 31.0319L 14.5824 31.7181C 17.5926 28.5273 21.7924 26.9062 27.25 26.9062L 27.25 25.9062ZM 13.8551 31.0319C 10.6193 34.4617 9.03125 39.192 9.03125 45.1562L 10.0312 45.1562C 10.0312 39.3705 11.5682 34.9133 14.5824 31.7181L 13.8551 31.0319ZM 9.03125 45.1562C 9.03125 51.398 10.5496 56.2178 13.6672 59.5302L 14.3953 58.8448C 11.5129 55.7822 10.0312 51.2478 10.0312 45.1562L 9.03125 45.1562ZM 13.6683 59.5314C 16.8117 62.8482 21.3889 64.4688 27.3125 64.4688L 27.3125 63.4688C 21.5694 63.4688 17.2925 61.9018 14.3942 58.8436L 13.6683 59.5314ZM 27.3125 64.4688C 30.5179 64.4688 33.6511 64.0997 36.7111 63.361L 36.4764 62.389C 33.4947 63.1087 30.4404 63.4688 27.3125 63.4688L 27.3125 64.4688ZM 37.0938 62.875L 37.0938 48.8125L 36.0938 48.8125L 36.0938 62.875L 37.0938 62.875ZM 36.5938 48.3125L 26.375 48.3125L 26.375 49.3125L 36.5938 49.3125L 36.5938 48.3125ZM 26.875 48.8125L 26.875 44.0625L 25.875 44.0625L 25.875 48.8125L 26.875 48.8125ZM 52.321 19.424L 52.321 18.924L 51.821 18.924L 51.821 19.424L 52.321 19.424ZM 63.777 67.68L 63.9822 68.136L 64.277 68.0033L 64.277 67.68L 63.777 67.68ZM 63.777 63.456L 64.277 63.456L 64.277 62.647L 63.5534 63.0088L 63.777 63.456ZM 57.249 19.424L 57.749 19.424L 57.749 18.924L 57.249 18.924L 57.249 19.424ZM 51.821 19.424L 51.821 61.088L 52.821 61.088L 52.821 19.424L 51.821 19.424ZM 51.821 61.088C 51.821 63.4385 52.417 65.4173 53.7059 66.8114C 55.0009 68.2122 56.9262 68.948 59.425 68.948L 59.425 67.948C 57.1238 67.948 55.4971 67.2758 54.4401 66.1326C 53.377 64.9827 52.821 63.2815 52.821 61.088L 51.821 61.088ZM 59.425 68.948C 60.7976 68.948 62.608 68.7544 63.9822 68.136L 63.5718 67.224C 62.386 67.7576 60.7404 67.948 59.425 67.948L 59.425 68.948ZM 64.277 67.68L 64.277 63.456L 63.277 63.456L 63.277 67.68L 64.277 67.68ZM 63.5534 63.0088C 62.9532 63.3089 62.0719 63.66 60.897 63.66L 60.897 64.66C 62.2821 64.66 63.3208 64.2431 64.0006 63.9032L 63.5534 63.0088ZM 60.897 63.66C 59.666 63.66 58.9298 63.3469 58.4773 62.789C 58.0038 62.2052 57.749 61.2459 57.749 59.744L 56.749 59.744C 56.749 61.3141 57.0062 62.5628 57.7007 63.419C 58.4162 64.3011 59.504 64.66 60.897 64.66L 60.897 63.66ZM 57.749 59.744L 57.749 19.424L 56.749 19.424L 56.749 59.744L 57.749 59.744ZM 57.249 18.924L 52.321 18.924L 52.321 19.924L 57.249 19.924L 57.249 18.924ZM 92.5185 61.472L 92.9504 61.2201L 92.6461 60.6984L 92.1904 61.0947L 92.5185 61.472ZM 73.4465 52.256L 73.4465 51.756L 72.9197 51.756L 72.9472 52.2821L 73.4465 52.256ZM 95.5905 52.256L 95.5905 52.756L 96.0366 52.756L 96.0873 52.3128L 95.5905 52.256ZM 94.7585 65.312L 95.0585 65.712L 95.4148 65.4448L 95.1904 65.0601L 94.7585 65.312ZM 90.9825 48.16L 90.9825 48.66L 91.4426 48.66L 91.4808 48.2015L 90.9825 48.16ZM 73.5105 48.16L 73.0112 48.1333L 72.9831 48.66L 73.5105 48.66L 73.5105 48.16ZM 92.1904 61.0947C 90.8185 62.2876 87.8026 63.596 84.4545 63.596L 84.4545 64.596C 88.0184 64.596 91.2745 63.2164 92.8466 61.8493L 92.1904 61.0947ZM 84.4545 63.596C 81.0384 63.596 78.5553 62.7972 76.8621 61.0446C 75.1595 59.2823 74.1671 56.4656 73.9458 52.2299L 72.9472 52.2821C 73.1739 56.6224 74.1975 59.7257 76.1429 61.7394C 78.0977 63.7628 80.8946 64.596 84.4545 64.596L 84.4545 63.596ZM 73.4465 52.756L 95.5905 52.756L 95.5905 51.756L 73.4465 51.756L 73.4465 52.756ZM 96.0873 52.3128C 96.3449 50.0585 96.4745 47.9911 96.4745 46.24L 95.4745 46.24C 95.4745 47.9449 95.3481 49.9735 95.0937 52.1992L 96.0873 52.3128ZM 96.4745 46.24C 96.4745 42.0273 95.3475 38.4867 93.1063 35.9937C 90.8582 33.4929 87.5441 32.108 83.3025 32.108L 83.3025 33.108C 87.3169 33.108 90.3388 34.4111 92.3627 36.6623C 94.3935 38.9213 95.4745 42.1967 95.4745 46.24L 96.4745 46.24ZM 83.3025 32.108C 79.3185 32.108 75.4823 33.4435 72.644 36.4317C 69.8059 39.4196 68.0185 44.0035 68.0185 50.4L 69.0185 50.4C 69.0185 44.1885 70.7511 39.8764 73.369 37.1203C 75.9867 34.3645 79.5425 33.108 83.3025 33.108L 83.3025 32.108ZM 68.0185 50.4C 68.0185 56.9508 69.3716 61.6092 72.0739 64.6294C 74.7874 67.6621 78.7741 68.948 83.8145 68.948L 83.8145 67.948C 78.9349 67.948 75.2736 66.7059 72.8191 63.9626C 70.3534 61.2068 69.0185 56.8412 69.0185 50.4L 68.0185 50.4ZM 83.8145 68.948C 88.9003 68.948 92.6571 67.513 95.0585 65.712L 94.4585 64.912C 92.2519 66.567 88.7127 67.948 83.8145 67.948L 83.8145 68.948ZM 95.1904 65.0601L 92.9504 61.2201L 92.0866 61.7239L 94.3266 65.5639L 95.1904 65.0601ZM 82.8545 37.396C 85.5696 37.396 87.4591 38.1944 88.6821 39.6284C 89.9179 41.0776 90.5465 43.2603 90.5465 46.176L 91.5465 46.176C 91.5465 43.1397 90.8951 40.6824 89.4429 38.9796C 87.9779 37.2616 85.7714 36.396 82.8545 36.396L 82.8545 37.396ZM 90.5465 46.176C 90.5465 46.6251 90.5463 47.3738 90.4842 48.1185L 91.4808 48.2015C 91.5467 47.4102 91.5465 46.6229 91.5465 46.176L 90.5465 46.176ZM 90.9825 47.66L 73.5105 47.66L 73.5105 48.66L 90.9825 48.66L 90.9825 47.66ZM 74.0098 48.1867C 74.2295 44.0745 75.4021 41.3878 77.0057 39.7318C 78.6056 38.0796 80.6898 37.396 82.8545 37.396L 82.8545 36.396C 80.4752 36.396 78.1114 37.1524 76.2873 39.0362C 74.4669 40.9162 73.2395 43.8615 73.0112 48.1333L 74.0098 48.1867ZM 131.428 44L 131.929 44L 131.928 43.9876L 131.428 44ZM 110.181 36.832L 110.181 37.332L 110.423 37.332L 110.573 37.1418L 110.181 36.832ZM 109.925 36.832L 109.443 36.9671L 109.546 37.332L 109.925 37.332L 109.925 36.832ZM 108.901 33.184L 109.382 33.0489L 109.279 32.684L 108.901 32.684L 108.901 33.184ZM 105.124 33.184L 105.124 32.684L 104.624 32.684L 104.624 33.184L 105.124 33.184ZM 105.124 68L 104.624 68L 104.624 68.5L 105.124 68.5L 105.124 68ZM 110.116 68L 110.116 68.5L 110.616 68.5L 110.616 68L 110.116 68ZM 110.116 43.104L 109.646 42.9353L 109.616 43.0171L 109.616 43.104L 110.116 43.104ZM 126.437 68L 125.937 68L 125.937 68.5L 126.437 68.5L 126.437 68ZM 131.428 68L 131.428 68.5L 131.928 68.5L 131.928 68L 131.428 68ZM 131.928 43.9876C 131.83 40.0314 130.716 37.0106 128.66 34.9802C 126.603 32.9491 123.676 31.98 120.101 31.98L 120.101 32.98C 123.501 32.98 126.142 33.8989 127.957 35.6918C 129.773 37.4854 130.835 40.2246 130.929 44.0124L 131.928 43.9876ZM 120.101 31.98C 114.468 31.98 110.815 35.2212 109.788 36.5222L 110.573 37.1418C 111.466 36.0108 114.853 32.98 120.101 32.98L 120.101 31.98ZM 110.181 36.332L 109.925 36.332L 109.925 37.332L 110.181 37.332L 110.181 36.332ZM 110.406 36.6969L 109.382 33.0489L 108.419 33.3191L 109.443 36.9671L 110.406 36.6969ZM 108.901 32.684L 105.124 32.684L 105.124 33.684L 108.901 33.684L 108.901 32.684ZM 104.624 33.184L 104.624 68L 105.624 68L 105.624 33.184L 104.624 33.184ZM 105.124 68.5L 110.116 68.5L 110.116 67.5L 105.124 67.5L 105.124 68.5ZM 110.616 68L 110.616 43.104L 109.616 43.104L 109.616 68L 110.616 68ZM 110.587 43.2727C 111.739 40.0598 114.892 37.396 118.948 37.396L 118.948 36.396C 114.429 36.396 110.926 39.3642 109.646 42.9353L 110.587 43.2727ZM 118.948 37.396C 121.277 37.396 122.999 38.0975 124.145 39.3671C 125.299 40.6449 125.937 42.5718 125.937 45.152L 126.937 45.152C 126.937 42.4202 126.262 40.2191 124.888 38.6969C 123.506 37.1665 121.484 36.396 118.948 36.396L 118.948 37.396ZM 125.937 45.152L 125.937 68L 126.937 68L 126.937 45.152L 125.937 45.152ZM 126.437 68.5L 131.428 68.5L 131.428 67.5L 126.437 67.5L 126.437 68.5ZM 131.928 68L 131.928 44L 130.928 44L 130.928 68L 131.928 68ZM 168.178 44L 168.679 44L 168.678 43.9876L 168.178 44ZM 146.931 36.832L 146.931 37.332L 147.173 37.332L 147.323 37.1418L 146.931 36.832ZM 146.675 36.832L 146.193 36.9671L 146.296 37.332L 146.675 37.332L 146.675 36.832ZM 145.651 33.184L 146.132 33.0489L 146.029 32.684L 145.651 32.684L 145.651 33.184ZM 141.874 33.184L 141.874 32.684L 141.374 32.684L 141.374 33.184L 141.874 33.184ZM 141.874 68L 141.374 68L 141.374 68.5L 141.874 68.5L 141.874 68ZM 146.866 68L 146.866 68.5L 147.366 68.5L 147.366 68L 146.866 68ZM 146.866 43.104L 146.396 42.9353L 146.366 43.0171L 146.366 43.104L 146.866 43.104ZM 163.187 68L 162.687 68L 162.687 68.5L 163.187 68.5L 163.187 68ZM 168.178 68L 168.178 68.5L 168.678 68.5L 168.678 68L 168.178 68ZM 168.678 43.9876C 168.58 40.0314 167.466 37.0106 165.41 34.9802C 163.353 32.9491 160.426 31.98 156.851 31.98L 156.851 32.98C 160.251 32.98 162.892 33.8989 164.707 35.6918C 166.523 37.4854 167.585 40.2246 167.679 44.0124L 168.678 43.9876ZM 156.851 31.98C 151.218 31.98 147.565 35.2212 146.538 36.5222L 147.323 37.1418C 148.216 36.0108 151.603 32.98 156.851 32.98L 156.851 31.98ZM 146.931 36.332L 146.675 36.332L 146.675 37.332L 146.931 37.332L 146.931 36.332ZM 147.156 36.6969L 146.132 33.0489L 145.169 33.3191L 146.193 36.9671L 147.156 36.6969ZM 145.651 32.684L 141.874 32.684L 141.874 33.684L 145.651 33.684L 145.651 32.684ZM 141.374 33.184L 141.374 68L 142.374 68L 142.374 33.184L 141.374 33.184ZM 141.874 68.5L 146.866 68.5L 146.866 67.5L 141.874 67.5L 141.874 68.5ZM 147.366 68L 147.366 43.104L 146.366 43.104L 146.366 68L 147.366 68ZM 147.337 43.2727C 148.489 40.0598 151.642 37.396 155.698 37.396L 155.698 36.396C 151.179 36.396 147.676 39.3642 146.396 42.9353L 147.337 43.2727ZM 155.698 37.396C 158.027 37.396 159.749 38.0975 160.895 39.3671C 162.049 40.6449 162.687 42.5718 162.687 45.152L 163.687 45.152C 163.687 42.4202 163.012 40.2191 161.638 38.6969C 160.256 37.1665 158.234 36.396 155.698 36.396L 155.698 37.396ZM 162.687 45.152L 162.687 68L 163.687 68L 163.687 45.152L 162.687 45.152ZM 163.187 68.5L 168.178 68.5L 168.178 67.5L 163.187 67.5L 163.187 68.5ZM 168.678 68L 168.678 44L 167.678 44L 167.678 68L 168.678 68Z"/>
<path id="path2_fill" d="M 0 0L 108 0L 108 7L 0 7L 0 0Z"/>
<path id="path3_stroke_2x" d="M 0 0L 0 -0.5L -0.5 -0.5L -0.5 0L 0 0ZM 108 0L 108.5 0L 108.5 -0.5L 108 -0.5L 108 0ZM 108 7L 108 7.5L 108.5 7.5L 108.5 7L 108 7ZM 0 7L -0.5 7L -0.5 7.5L 0 7.5L 0 7ZM 0 0.5L 108 0.5L 108 -0.5L 0 -0.5L 0 0.5ZM 107.5 0L 107.5 7L 108.5 7L 108.5 0L 107.5 0ZM 108 6.5L 0 6.5L 0 7.5L 108 7.5L 108 6.5ZM 0.5 7L 0.5 0L -0.5 0L -0.5 7L 0.5 7Z"/>
<path id="path4_fill" d="M 0 0L 166 0L 166 7L 0 7L 0 0Z"/>
<path id="path5_stroke_2x" d="M 0 0L 0 -0.5L -0.5 -0.5L -0.5 0L 0 0ZM 166 0L 166.5 0L 166.5 -0.5L 166 -0.5L 166 0ZM 166 7L 166 7.5L 166.5 7.5L 166.5 7L 166 7ZM 0 7L -0.5 7L -0.5 7.5L 0 7.5L 0 7ZM 0 0.5L 166 0.5L 166 -0.5L 0 -0.5L 0 0.5ZM 165.5 0L 165.5 7L 166.5 7L 166.5 0L 165.5 0ZM 166 6.5L 0 6.5L 0 7.5L 166 7.5L 166 6.5ZM 0.5 7L 0.5 0L -0.5 0L -0.5 7L 0.5 7Z"/>
</defs>
</svg>
